<svg width="210" height="119" viewBox="0 0 210 119" fill="none" xmlns="http://www.w3.org/2000/svg">
<path d="M48.6341 43.7034L60.5773 43.8232C64.2313 33.1168 71.6568 23.4417 82.0099 15.8973C92.363 8.35278 105.229 3.24144 119.145 1.14404C133.061 -0.953351 147.47 0.0472946 160.734 4.03228C173.999 8.01726 185.586 14.8268 194.181 23.6871C202.775 32.5474 208.032 43.1032 209.353 54.1551C210.675 65.207 208.008 76.3117 201.656 86.2076C195.304 96.1034 185.522 104.393 173.421 110.136C161.319 115.878 147.385 118.842 133.199 118.692L47.8908 117.837C35.3212 117.71 23.3056 113.684 14.4872 106.644C5.6689 99.6035 0.770181 90.1254 0.868752 80.2948C0.967322 70.4641 6.05511 61.0861 15.0128 54.2239C23.9706 47.3617 36.0645 43.5774 48.6341 43.7034Z" fill="#D9D9D9"/>
</svg>
