<svg width="314" height="289" viewBox="0 0 314 289" fill="none" xmlns="http://www.w3.org/2000/svg">
<path d="M311.921 162.418L254.029 198.593L228.09 214.795L162.198 173.731L1.74646 73.7231L190.073 127.576L235.977 140.698L311.921 162.418Z" fill="white"/>
<path d="M228.09 216.541C227.769 216.541 227.449 216.453 227.165 216.277L0.823084 75.2048C0.0840969 74.7446 -0.202342 73.8097 0.150802 73.0147C0.505254 72.2184 1.39204 71.8039 2.22651 72.0445L312.4 160.739C313.063 160.929 313.552 161.491 313.649 162.173C313.746 162.856 313.43 163.532 312.844 163.898L229.014 216.276C228.732 216.453 228.412 216.541 228.09 216.541ZM13.2302 78.8228L228.088 212.737L307.665 163.017L13.2302 78.8228Z" fill="#371A45"/>
<g opacity="0.25">
<path d="M253.831 199.019L227.892 215.221L162 174.156C168.992 157.311 176.86 140.382 189.874 128L235.778 141.123C236.435 146.904 235.68 152.883 234.081 158.505C233.79 159.526 233.472 160.538 233.134 161.541C228.985 173.791 234.179 187.26 245.364 193.759C245.436 193.801 245.508 193.843 245.58 193.884C248.382 195.512 251.196 197.147 253.831 199.019Z" fill="#371A45"/>
</g>
<path d="M1.74646 73.7231L249.047 200.828L222.501 286.728L1.74646 73.7231Z" fill="white"/>
<g opacity="0.25">
<path d="M1.74646 73.7231L249.047 200.828L222.501 286.728L1.74646 73.7231Z" fill="#371A45"/>
</g>
<path d="M222.501 288.474C222.054 288.474 221.618 288.303 221.288 287.984L0.534024 74.9798C-0.0898645 74.3783 -0.177497 73.412 0.326061 72.7073C0.829619 72.0038 1.77395 71.7737 2.54433 72.1712L249.845 199.276C250.598 199.663 250.964 200.535 250.716 201.345L224.17 287.245C223.991 287.824 223.524 288.27 222.936 288.42C222.793 288.456 222.646 288.474 222.501 288.474ZM11.4815 80.6898L221.67 283.5L246.946 201.711L11.4815 80.6898Z" fill="#371A45"/>
<path d="M210.914 175.228C203.371 183.477 185.984 178.891 185.984 178.891L190.99 119.174L192.001 107.113C192.001 107.113 202.047 108.251 209.425 112.071C212.98 113.91 215.915 116.373 216.81 119.631C219.929 130.951 217.111 168.447 210.914 175.228Z" fill="white"/>
<g opacity="0.25">
<path d="M217.703 144.803C216.809 157.915 214.394 171.418 210.914 175.226C203.372 183.476 185.983 178.889 185.983 178.889L192.002 107.113C192.002 107.113 192.189 107.133 192.532 107.182L187.838 163.145C187.838 163.145 205.227 167.732 212.768 159.481C214.81 157.247 216.487 151.674 217.703 144.803Z" fill="#371A45"/>
</g>
<path d="M196.443 181.673C190.773 181.673 185.982 180.443 185.6 180.342C184.799 180.13 184.321 179.31 184.533 178.509C184.743 177.707 185.562 177.229 186.365 177.439C186.531 177.482 202.969 181.691 209.805 174.215C215.38 168.115 218.406 131.076 215.362 120.03C213.322 112.622 197.685 109.269 191.834 108.602C191.01 108.508 190.417 107.765 190.511 106.942C190.605 106.118 191.355 105.531 192.172 105.62C193.114 105.727 215.261 108.358 218.257 119.233C221.337 130.415 218.722 168.907 212.02 176.239C208.082 180.548 201.862 181.673 196.443 181.673Z" fill="#371A45"/>
<path d="M215.932 150.196L203.825 150.06C202.744 150.048 201.79 150.765 201.507 151.807C200.47 155.626 198.531 164.571 202.048 167.885C204.968 170.634 210.079 170.782 213.278 168.517C216.857 165.983 217.949 157.141 218.275 152.745C218.376 151.377 217.303 150.211 215.932 150.196Z" fill="white"/>
<g opacity="0.25">
<path d="M201.507 151.809C200.467 155.627 198.531 164.572 202.048 167.884C204.968 170.635 210.079 170.782 213.28 168.518C215.48 166.958 216.739 163.013 217.459 159.185C216.75 161.067 215.764 162.561 214.616 163.497C208.044 168.863 204.118 161.528 204.118 161.528C204.118 161.528 203.186 163.146 202.552 163.187C199.9 163.36 201.149 155.215 201.893 151.015C201.72 151.245 201.585 151.512 201.507 151.809Z" fill="#371A45"/>
</g>
<path d="M208.056 171.387C205.501 171.387 202.963 170.519 201.162 168.823C197.271 165.156 198.928 156.376 200.261 151.468C200.696 149.86 202.194 148.757 203.838 148.769L215.945 148.905C216.954 148.917 217.924 149.35 218.606 150.091C219.287 150.832 219.635 151.834 219.559 152.839C219.103 159.006 217.773 166.914 214.023 169.569C212.301 170.789 210.173 171.387 208.056 171.387ZM203.797 151.35C203.308 151.35 202.879 151.676 202.752 152.145C200.771 159.439 200.839 164.972 202.933 166.945C205.337 169.209 209.733 169.446 212.532 167.464C214.751 165.893 216.416 160.355 216.987 152.65C217.009 152.348 216.908 152.059 216.704 151.837C216.5 151.614 216.22 151.489 215.917 151.486L203.809 151.35C203.805 151.35 203.801 151.35 203.797 151.35Z" fill="#371A45"/>
<path d="M205.862 154.516C205.853 159.428 204.518 166.696 210.319 168.711C211.001 168.935 211.372 169.675 211.139 170.355C210.142 172.817 206.251 169.268 205.52 167.954C203.768 165.168 203.809 161.895 204.056 158.825C204.182 157.339 204.405 155.875 204.497 154.475C204.566 153.61 205.847 153.646 205.862 154.516Z" fill="#371A45"/>
<path d="M211.314 118.513C205.397 118.498 199.327 118.855 193.568 120.136C192.869 120.302 192.17 119.865 192.01 119.167C191.84 118.436 192.342 117.705 193.085 117.602C196.164 117.159 199.223 117.011 202.271 117.003C205.32 117.004 208.345 117.129 211.381 117.405C212.079 117.467 212.023 118.536 211.314 118.513Z" fill="#371A45"/>
<path d="M141.115 111.086C140.507 122.359 136.225 141.612 131.51 161.823L125.515 157.751L124.915 157.346L112.579 148.979L97.9218 139.042C95.9311 135.823 94.4361 132.763 93.6121 129.942C88.3725 131.514 85.7527 129.174 85.7527 126.715C85.7527 125.522 86.4786 124.446 87.4988 123.831L88.4902 123.237L93.6108 120.165C91.7391 120.054 90.3828 119.529 89.4267 118.691C88.4209 117.805 88.5674 116.205 89.6987 115.485C93.4499 113.117 97.2364 112.586 101.058 113.075C105.662 113.669 109.93 115.841 113.242 119.089C116.336 122.126 119.326 125.681 122.191 129.851C122.212 129.878 122.232 129.914 122.253 129.941C122.372 129.759 122.484 129.586 122.596 129.41C128.618 120.226 134.633 114.193 140.655 111.301C140.808 111.226 140.962 111.157 141.115 111.086Z" fill="white"/>
<path d="M131.51 163.23C131.233 163.23 130.955 163.148 130.719 162.987L97.1306 140.207C96.9671 140.096 96.8284 139.951 96.7238 139.783C94.8744 136.792 93.5416 134.109 92.6731 131.627C90.1187 132.134 87.9043 131.796 86.3453 130.636C85.0726 129.69 84.3441 128.261 84.3441 126.717C84.3441 125.097 85.2741 123.531 86.7717 122.628L89.963 120.714C89.4202 120.451 88.9311 120.13 88.4981 119.751C87.6872 119.035 87.2713 118.01 87.355 116.935C87.44 115.848 88.0181 114.888 88.9415 114.301C92.6574 111.956 96.6728 111.1 101.234 111.683C106.031 112.301 110.643 114.575 114.224 118.087C117.031 120.842 119.712 123.984 122.213 127.447C128.099 118.745 134.09 112.895 140.043 110.037C140.191 109.962 140.362 109.884 140.533 109.807C140.981 109.604 141.501 109.65 141.908 109.927C142.313 110.204 142.545 110.674 142.519 111.164C141.892 122.762 137.413 142.708 132.878 162.145C132.772 162.596 132.452 162.966 132.02 163.136C131.856 163.199 131.682 163.23 131.51 163.23ZM98.9617 138.048L130.605 159.508C134.636 142.179 138.518 124.698 139.529 113.498C134.318 116.563 129.031 122.162 123.772 130.182C123.666 130.348 123.552 130.526 123.431 130.713C123.181 131.095 122.76 131.333 122.302 131.348C121.84 131.367 121.409 131.158 121.133 130.793C121.114 130.768 121.065 130.697 121.048 130.672C118.315 126.695 115.362 123.144 112.256 120.094C109.111 117.01 105.07 115.013 100.878 114.473C97.0011 113.975 93.586 114.697 90.4496 116.677C90.2129 116.827 90.1697 117.061 90.1618 117.155C90.1527 117.264 90.1671 117.472 90.3567 117.639C91.1075 118.297 92.2323 118.676 93.6946 118.763C94.3106 118.8 94.8312 119.234 94.9777 119.833C95.1242 120.432 94.8639 121.057 94.3342 121.373L88.2222 125.04C87.5669 125.434 87.1588 126.078 87.1588 126.717C87.1588 127.372 87.4662 127.963 88.026 128.379C89.105 129.182 90.9937 129.26 93.2067 128.597C93.5638 128.49 93.9523 128.529 94.2819 128.709C94.6115 128.888 94.856 129.191 94.962 129.551C95.6892 132.039 97.0351 134.897 98.9617 138.048Z" fill="#371A45"/>
<path d="M112.579 150.387C112.458 150.387 112.337 150.371 112.215 150.338C111.464 150.138 111.018 149.367 111.22 148.616C113.443 140.3 116.785 133.667 121.155 128.9C121.275 128.76 121.43 128.595 121.577 128.441C121.647 128.372 121.685 128.334 121.723 128.292C122.239 127.713 123.129 127.663 123.709 128.18C124.289 128.697 124.338 129.586 123.82 130.166C123.746 130.249 123.673 130.324 123.589 130.408C123.497 130.504 123.373 130.634 123.255 130.771C119.168 135.23 116.042 141.468 113.938 149.342C113.769 149.972 113.2 150.387 112.579 150.387Z" fill="#371A45"/>
<g opacity="0.25">
<path d="M130.462 134.733C128.611 142.269 126.767 149.812 124.915 157.347L112.579 148.98L97.9218 139.043C95.9311 135.824 94.4361 132.764 93.6121 129.944C88.3725 131.515 85.7527 129.175 85.7527 126.717C85.7527 125.523 86.4786 124.447 87.4988 123.832L88.4902 123.239L90.1526 123.414C88.8957 123.351 88.3568 125.272 89.1743 126.235C89.9917 127.199 91.4239 127.325 92.6809 127.178C93.9312 127.038 95.2104 126.704 96.4399 127.003C98.7876 127.59 99.919 130.153 101.029 132.304C102.769 135.669 105.221 138.673 108.17 141.054C111.327 143.603 115.393 145.489 119.389 144.727C124.419 143.763 127.709 139.056 130.462 134.733Z" fill="#371A45"/>
</g>
<path d="M195.934 148.198C195.934 148.45 195.934 148.708 195.927 148.967C195.913 149.778 195.892 150.587 195.858 151.39C195.837 151.802 195.816 152.214 195.795 152.626C195.76 153.289 195.711 153.945 195.655 154.603C195.641 154.799 195.628 155 195.607 155.196C195.586 155.427 195.565 155.65 195.544 155.88C195.544 155.95 195.537 156.027 195.523 156.104C195.488 156.509 195.439 156.915 195.398 157.319C195.328 157.877 195.258 158.437 195.18 158.988C195.118 159.435 195.055 159.875 194.984 160.315C194.894 160.882 194.796 161.44 194.691 162.006C194.601 162.495 194.503 162.984 194.398 163.473C194.294 163.969 194.181 164.464 194.063 164.961C193.98 165.331 193.888 165.701 193.791 166.065C193.631 166.665 193.47 167.266 193.288 167.86C193.183 168.216 193.079 168.573 192.966 168.922C192.931 169.02 192.903 169.118 192.868 169.215C192.82 169.369 192.77 169.528 192.714 169.683C192.609 169.996 192.504 170.304 192.385 170.619C192.281 170.912 192.176 171.213 192.057 171.505C192.043 171.547 192.03 171.589 192.009 171.631C191.939 171.827 191.862 172.022 191.785 172.218C191.778 172.232 191.771 172.245 191.764 172.26C191.618 172.623 191.471 172.979 191.317 173.336C191.128 173.783 190.932 174.222 190.723 174.663C190.527 175.082 190.325 175.501 190.115 175.913C189.751 176.626 189.368 177.331 188.962 178.022C188.837 178.252 188.697 178.476 188.557 178.706C186.602 181.933 184.198 184.908 181.27 187.575C180.942 187.876 180.607 188.169 180.265 188.462C179.441 189.166 178.573 189.845 177.672 190.501C177.463 190.662 177.246 190.815 177.03 190.963C176.618 191.256 176.192 191.542 175.759 191.822L145.433 171.262L131.51 161.827L125.516 157.755C127.101 144.794 130.335 132.194 136.225 120.169L140.654 111.306L141.814 108.994L171.155 100.614L193.161 119.82C193.349 120.888 193.531 121.95 193.706 123.011C194.07 125.267 194.405 127.516 194.698 129.75C194.746 130.156 194.796 130.561 194.844 130.959C194.914 131.489 194.978 132.012 195.033 132.537C195.11 133.166 195.173 133.793 195.235 134.416C195.284 134.848 195.326 135.275 195.361 135.708C195.403 136.119 195.438 136.525 195.472 136.937C195.541 137.712 195.598 138.487 195.647 139.255C195.675 139.618 195.704 139.974 195.717 140.331C195.786 141.449 195.842 142.566 195.878 143.676C195.892 144.115 195.905 144.549 195.913 144.982C195.94 146.054 195.948 147.13 195.934 148.198Z" fill="white"/>
<path d="M141.669 108.482C148.68 105.377 156.013 103.209 163.426 101.33C165.884 100.675 168.321 99.9489 170.768 99.2585C171.24 99.1239 171.733 99.2533 172.08 99.5514L194.086 118.757C194.337 118.976 194.492 119.265 194.546 119.571C197.399 136.656 199.334 153.906 194.016 170.216C193.634 171.295 193.36 172.072 193.043 172.843C190.688 178.889 186.088 185.716 180.53 190.04C179.328 191.004 177.833 192.166 176.523 193C174.982 193.997 173.424 191.751 174.945 190.671C175.763 190.134 176.755 189.454 177.509 188.838C184.419 183.787 189.28 176.12 191.667 168.357C195.589 155.618 194.887 142.064 193.161 128.952C192.72 125.986 192.312 123.017 191.777 120.059L192.238 120.874L170.229 101.671L171.541 101.964C164.172 103.954 156.986 106.574 149.499 108.124C147.008 108.658 144.507 109.161 141.959 109.502C141.666 109.541 141.395 109.336 141.356 109.042C141.325 108.801 141.458 108.577 141.669 108.482Z" fill="#371A45"/>
<path d="M124.03 157.571C125.713 144.495 129.625 131.608 135.674 119.897C136.039 119.215 137.099 119.703 136.777 120.437C132.699 129.304 129.965 138.711 128.355 148.312C127.807 151.506 127.453 154.727 127.004 157.934C126.694 159.843 123.873 159.514 124.03 157.571Z" fill="#371A45"/>
<g opacity="0.25">
<path d="M195.787 152.738C194.551 153.087 193.237 153.269 191.966 153.388C185.225 154.044 178.413 153.933 171.693 153.059C169.876 152.821 167.864 152.41 166.837 150.894C166.104 149.826 166.048 148.442 166.089 147.151C166.159 145.014 166.487 142.736 167.898 141.124C169.561 139.224 172.299 138.735 174.395 137.324C177.349 135.341 179.277 131.43 182.819 131.074L185.006 131.829C184.81 131.542 185.132 131.131 185.481 131.095C185.83 131.06 186.158 131.242 186.48 131.375C187.877 131.954 189.449 131.626 190.959 131.634C192.363 131.648 193.746 131.962 195.032 132.535C195.822 139.469 196.164 146.271 195.787 152.738Z" fill="#371A45"/>
</g>
<g opacity="0.25">
<path d="M195.606 155.196C195.585 155.426 195.564 155.65 195.543 155.88C195.543 155.949 195.536 156.027 195.522 156.104C195.487 156.509 195.438 156.914 195.396 157.318C195.327 157.877 195.256 158.436 195.179 158.988C195.117 159.435 195.054 159.875 194.983 160.315C194.893 160.881 194.795 161.44 194.69 162.006C194.6 162.495 194.502 162.984 194.397 163.473C194.293 163.969 194.18 164.464 194.062 164.961C193.979 165.331 193.887 165.701 193.79 166.065C193.629 166.665 193.469 167.266 193.287 167.86C193.182 168.215 193.077 168.572 192.965 168.922C192.93 169.02 192.902 169.118 192.867 169.214C192.818 169.369 192.769 169.528 192.713 169.683C192.608 169.996 192.503 170.304 192.384 170.619C192.28 170.912 192.175 171.212 192.056 171.505C192.042 171.547 192.028 171.589 192.008 171.631C191.938 171.827 191.861 172.022 191.784 172.218C191.777 172.232 191.77 172.245 191.763 172.26C191.616 172.623 191.47 172.979 191.316 173.336C191.127 173.783 190.931 174.222 190.722 174.663C190.526 175.081 190.324 175.501 190.114 175.913C189.75 176.626 189.367 177.33 188.961 178.022C188.836 178.252 188.696 178.476 188.556 178.706C186.601 181.933 184.197 184.908 181.269 187.575C180.941 187.876 180.606 188.169 180.264 188.461C179.44 189.166 178.572 189.845 177.671 190.501C177.462 190.662 177.245 190.815 177.029 190.963C176.617 191.256 176.191 191.542 175.758 191.822L145.432 171.262C145.376 171.109 145.321 170.948 145.271 170.787C150.832 172.953 157.245 172.848 162.728 170.495C165.662 169.238 168.449 167.213 169.665 164.265C170.874 161.318 169.966 157.38 167.102 155.969L167.472 152.98C176.884 153.192 186.279 153.925 195.606 155.196Z" fill="#371A45"/>
</g>
<path d="M223.548 224.225L222.501 224.707L174.229 247.062L133.661 265.849C130.72 267.211 127.228 266.212 125.461 263.495L2.09558 74.0729L97.9206 139.043L112.577 148.981L125.516 157.752L131.51 161.823L175.759 191.818L223.548 224.225Z" fill="white"/>
<g opacity="0.25">
<path d="M176.438 234.766L136.434 254.724C133.535 256.172 130.014 255.275 128.168 252.61L6.34247 76.9521L2.09558 74.0729L125.459 263.493C127.226 266.21 130.72 267.207 133.66 265.846L174.227 247.059L222.499 224.704L223.547 224.222L212.533 216.754L176.438 234.766Z" fill="#371A45"/>
</g>
<path d="M130.949 268.189C128.219 268.189 125.555 266.842 123.997 264.446L0.632059 75.0258C0.178203 74.3289 0.278914 73.4097 0.87272 72.8265C1.46522 72.2447 2.38601 72.161 3.0766 72.6278L126.497 156.308L132.491 160.381L224.529 222.781C225.051 223.134 225.342 223.742 225.289 224.369C225.237 224.997 224.851 225.549 224.278 225.812L223.231 226.293L134.395 267.432C133.289 267.943 132.112 268.189 130.949 268.189ZM8.28875 80.3802L126.924 262.54C128.207 264.514 130.789 265.254 132.928 264.262L220.012 223.934L8.28875 80.3802Z" fill="#371A45"/>
<path d="M222.501 224.706V286.729L174.229 247.061L178.931 244.882L220.608 225.579L222.501 224.706Z" fill="white"/>
<path d="M222.501 288.474C222.105 288.474 221.711 288.338 221.392 288.076L173.12 248.408C172.657 248.028 172.42 247.434 172.496 246.838C172.573 246.242 172.95 245.728 173.495 245.475L221.767 223.12C222.307 222.869 222.939 222.912 223.441 223.233C223.944 223.553 224.248 224.108 224.248 224.704V286.727C224.248 287.403 223.859 288.018 223.248 288.305C223.01 288.419 222.755 288.474 222.501 288.474ZM177.485 247.476L220.755 283.032V227.438L177.485 247.476Z" fill="#371A45"/>
<g opacity="0.25">
<path d="M218.463 247.654C217.583 252.647 216.542 257.794 213.602 261.922C212.987 262.787 212.268 263.612 211.331 264.1C209.598 265.007 207.475 264.589 205.644 263.912C201.291 262.319 197.555 259.443 193.887 256.614C188.92 252.781 183.96 248.946 179 245.112L178.931 244.882L220.608 225.578C220.866 232.918 219.756 240.384 218.463 247.654Z" fill="#371A45"/>
</g>
<path d="M134.704 161.006L164.019 162.062C167.489 162.189 170.433 159.452 170.558 155.98L171.121 140.385C171.231 137.345 169.144 134.712 166.292 134.021C165.888 133.92 165.468 133.864 165.035 133.847L135.724 132.789C132.25 132.664 129.306 135.399 129.184 138.872L128.736 151.224L128.618 154.468C128.492 157.941 131.234 160.879 134.704 161.006Z" fill="white"/>
<g opacity="0.25">
<path d="M134.704 161.006L164.019 162.062C167.489 162.189 170.433 159.453 170.558 155.98L171.121 140.385C171.231 137.345 169.145 134.713 166.292 134.021C164.588 135.066 163.505 135.735 163.505 135.735C161.625 148.201 161.841 157.502 142.459 155.513C135.776 154.828 131.361 152.698 128.737 151.224L128.619 154.468C128.492 157.941 131.234 160.879 134.704 161.006Z" fill="#371A45"/>
</g>
<path d="M164.248 163.234C164.156 163.234 164.066 163.233 163.974 163.229L134.661 162.171C130.538 162.022 127.305 158.548 127.453 154.426L128.016 138.829C128.088 136.839 128.936 134.992 130.403 133.627C131.871 132.264 133.783 131.555 135.765 131.623L165.077 132.681C167.066 132.753 168.916 133.6 170.28 135.066C171.644 136.533 172.356 138.435 172.285 140.425L171.723 156.023C171.576 160.054 168.25 163.234 164.248 163.234ZM164.059 160.899C166.909 160.996 169.29 158.775 169.392 155.939L169.954 140.342C170.004 138.974 169.513 137.665 168.573 136.654C167.633 135.644 166.361 135.06 164.993 135.011L135.681 133.953C134.314 133.906 133.004 134.394 131.992 135.335C130.981 136.275 130.398 137.546 130.348 138.914L129.785 154.511C129.681 157.349 131.907 159.74 134.746 159.842L164.059 160.899Z" fill="#371A45"/>
<path d="M133.53 160.848C133.907 160.94 134.297 160.993 134.702 161.006L164.017 162.062C166.56 162.152 168.82 160.712 169.894 158.561C170.286 157.78 170.522 156.905 170.553 155.98L170.805 149.051L170.889 146.765L171.119 140.384C171.245 136.912 168.503 133.972 165.035 133.847L158.7 133.619C161.6 134.274 163.731 136.927 163.622 139.999L163.32 148.423L163.06 155.599C162.933 159.068 159.99 161.809 156.52 161.682L133.53 160.848Z" fill="white"/>
<g opacity="0.25">
<path d="M133.53 160.848C133.907 160.941 134.297 160.993 134.702 161.006L164.017 162.063C167.487 162.189 170.431 159.453 170.553 155.98L170.889 146.766C170.093 148.367 168.696 150.318 166.569 150.452C165.402 150.527 164.288 149.65 163.32 148.425L163.06 155.601C162.933 159.07 159.99 161.81 156.52 161.683L133.53 160.848Z" fill="#371A45"/>
</g>
<path d="M164.254 163.234C164.161 163.234 164.07 163.233 163.977 163.229L134.662 162.17C134.192 162.155 133.719 162.092 133.26 161.983C132.676 161.844 132.294 161.286 132.376 160.692C132.457 160.098 132.986 159.662 133.574 159.684L156.566 160.516C157.924 160.559 159.242 160.075 160.252 159.135C161.263 158.195 161.846 156.924 161.895 155.556L162.457 139.958C162.546 137.49 160.86 135.301 158.445 134.754C157.858 134.621 157.47 134.064 157.547 133.466C157.624 132.87 158.12 132.418 158.745 132.452L165.077 132.679C167.067 132.752 168.916 133.6 170.281 135.066C171.645 136.533 172.358 138.435 172.285 140.425L171.722 156.022C171.652 158.012 170.804 159.859 169.337 161.224C167.937 162.527 166.141 163.234 164.254 163.234ZM161.863 160.819L164.06 160.899C165.417 160.944 166.735 160.458 167.746 159.518C168.757 158.578 169.341 157.307 169.389 155.939L169.951 140.343C170.002 138.975 169.512 137.666 168.57 136.655C167.63 135.645 166.359 135.062 164.989 135.011L163.011 134.94C164.185 136.323 164.854 138.125 164.785 140.045L164.223 155.641C164.153 157.618 163.315 159.456 161.863 160.819Z" fill="#371A45"/>
<path d="M151.778 147.509C151.761 148.086 152.43 152.767 152.43 152.767C152.43 152.767 153.906 152.811 155.717 152.866C157.981 152.936 159.887 150.647 159.974 147.758C160.062 144.868 158.298 142.469 156.035 142.399C154.507 142.354 152.748 142.3 152.748 142.3C152.748 142.3 151.806 146.569 151.778 147.509Z" fill="#22A7F0"/>
<g opacity="0.25">
<path d="M151.778 147.509C151.761 148.086 152.43 152.767 152.43 152.767C152.43 152.767 153.906 152.811 155.717 152.866C157.981 152.936 159.887 150.647 159.974 147.758C160.062 144.868 158.298 142.469 156.035 142.399C154.507 142.354 152.748 142.3 152.748 142.3C152.748 142.3 151.806 146.569 151.778 147.509Z" fill="#371A45"/>
</g>
<path d="M155.819 153.839C155.776 153.839 155.733 153.838 155.688 153.838L152.4 153.738C151.928 153.724 151.534 153.372 151.468 152.906C151.262 151.474 150.788 148.081 150.806 147.481C150.835 146.499 151.638 142.819 151.799 142.092C151.899 141.636 152.314 141.325 152.777 141.33L156.064 141.429C157.463 141.472 158.744 142.188 159.669 143.446C160.541 144.631 160.995 146.173 160.945 147.788C160.895 149.401 160.35 150.913 159.408 152.044C158.44 153.205 157.17 153.839 155.819 153.839ZM153.278 151.82L155.747 151.895C156.536 151.931 157.306 151.53 157.916 150.799C158.582 150 158.967 148.91 159.004 147.728C159.041 146.546 158.72 145.433 158.104 144.595C157.541 143.829 156.796 143.393 156.006 143.37L153.526 143.295C153.182 144.903 152.765 147.005 152.75 147.535C152.748 147.865 153.002 149.845 153.278 151.82Z" fill="#371A45"/>
<path d="M156.678 147.66C156.765 144.77 155.002 142.371 152.738 142.303C150.475 142.234 148.569 144.521 148.481 147.411C148.393 150.301 150.157 152.7 152.421 152.768C154.684 152.837 156.59 150.55 156.678 147.66Z" fill="#22A7F0"/>
<g opacity="0.25">
<path d="M156.688 147.658C156.601 150.547 154.694 152.836 152.432 152.767C150.165 152.699 148.402 150.298 148.491 147.407C148.501 147.018 148.548 146.636 148.625 146.271C149.147 148.274 150.604 149.733 152.362 149.784C154.318 149.843 156.008 148.146 156.485 145.815C156.634 146.393 156.705 147.012 156.688 147.658Z" fill="#371A45"/>
</g>
<path d="M156.688 147.659C156.683 147.855 156.667 148.049 156.642 148.239C156.261 145.961 154.704 144.238 152.791 144.18C150.683 144.118 148.881 146.1 148.581 148.712C148.509 148.291 148.479 147.856 148.492 147.407C148.579 144.519 150.486 142.23 152.748 142.299C155.01 142.371 156.774 144.768 156.688 147.659Z" fill="white"/>
<path d="M152.527 153.74C152.485 153.74 152.443 153.74 152.4 153.738C149.605 153.653 147.414 150.801 147.519 147.38C147.622 144.012 149.911 141.328 152.65 141.328C152.692 141.328 152.734 141.328 152.777 141.33C155.572 141.415 157.763 144.267 157.658 147.689C157.556 151.057 155.267 153.74 152.527 153.74ZM149.461 147.439C149.389 149.79 150.735 151.744 152.459 151.796C154.178 151.867 155.645 149.978 155.716 147.629C155.788 145.279 154.442 143.324 152.718 143.272C150.976 143.194 149.533 145.088 149.461 147.439Z" fill="#371A45"/>
<path d="M143.82 162.205C143.816 162.205 143.812 162.205 143.808 162.205C143.266 162.198 142.83 161.752 142.838 161.21L142.966 150.912L138.497 147.873C138.218 147.683 138.056 147.365 138.068 147.028L138.528 132.904C138.547 132.361 138.993 131.939 139.542 131.953C140.085 131.972 140.51 132.426 140.493 132.968L140.051 146.552L144.509 149.584C144.782 149.77 144.944 150.08 144.94 150.409L144.805 161.236C144.797 161.772 144.358 162.205 143.82 162.205Z" fill="#371A45"/>
<path d="M195.884 157.217L171.671 156.407C169.205 156.325 167.273 154.259 167.355 151.794C167.438 149.328 169.504 147.397 171.97 147.48L196.182 148.289C198.649 148.371 200.581 150.437 200.498 152.902C200.416 155.368 198.35 157.299 195.884 157.217Z" fill="white"/>
<g opacity="0.25">
<path d="M198.7 149.726C198.206 151.907 195.343 153.512 191.935 153.399L172.183 152.738C170.302 152.676 168.623 152.1 167.435 151.227C167.393 151.413 167.362 151.601 167.355 151.794C167.273 154.26 170.204 156.359 173.901 156.482L193.654 157.142C197.352 157.265 200.416 155.368 200.498 152.902C200.539 151.691 199.848 150.569 198.7 149.726Z" fill="#371A45"/>
</g>
<path d="M196.034 158.385C195.972 158.385 195.908 158.384 195.843 158.382L171.631 157.573C170.127 157.523 168.732 156.891 167.704 155.791C166.676 154.693 166.139 153.26 166.188 151.756C166.239 150.252 166.871 148.858 167.971 147.831C169.071 146.803 170.516 146.262 172.007 146.315L196.22 147.125C197.724 147.174 199.119 147.807 200.147 148.907C201.175 150.005 201.713 151.438 201.664 152.942C201.563 155.981 199.056 158.385 196.034 158.385ZM195.922 156.051C197.744 156.099 199.272 154.681 199.332 152.862C199.36 151.981 199.045 151.141 198.444 150.497C197.841 149.852 197.023 149.482 196.142 149.452L171.929 148.643C171.046 148.61 170.209 148.929 169.563 149.53C168.919 150.133 168.548 150.949 168.519 151.832C168.49 152.713 168.806 153.552 169.407 154.197C170.009 154.84 170.826 155.212 171.708 155.242L195.922 156.051Z" fill="#371A45"/>
<path d="M185.475 139.371L181.745 131.466L171.155 108.992C189.025 106.652 208.048 100.269 227.74 91.532C227.391 82.1033 232.449 72.774 237.172 82.8029C238.673 81.5738 240.281 80.7147 242.02 80.3303C245.108 79.6465 248.224 81.294 249.671 84.1013C250.502 85.7148 251.159 87.3557 251.64 89.0032C257.479 108.866 238.08 130.809 185.475 139.371Z" fill="white"/>
<path d="M170.972 107.597C190.478 104.969 209.203 98.1601 227.169 90.2469L226.334 91.5845C226.19 87.2748 227.229 78.2829 232.368 77.127C235.506 76.74 237.32 79.9042 238.445 82.2042L236.28 81.7152C240.79 77.7808 247.199 77.4251 250.656 82.8566C253.084 87.2591 254.396 92.2278 254.075 97.2645C251.787 125.348 209.007 137.626 185.551 139.837C185.292 139.86 185.062 139.671 185.039 139.412C185.016 139.175 185.173 138.963 185.397 138.91C194.544 136.701 203.655 134.591 212.498 131.616C231.237 125.459 258.642 110.037 249.197 86.5831L248.844 85.8248C246.857 80.6717 241.879 80.66 238.064 83.8935C237.454 84.3839 236.564 84.2871 236.073 83.6791C235.595 82.8959 235.228 82.0002 234.703 81.3059C233.979 80.3906 233.223 79.4191 232.229 80.1827C231.783 80.507 231.339 81.1385 230.979 81.808C229.513 84.6768 229.056 88.2372 229.148 91.4838C229.171 92.0748 228.822 92.5952 228.313 92.8214C219.226 96.8447 209.967 100.528 200.479 103.588C190.995 106.64 181.271 109.075 171.338 110.39C170.568 110.492 169.861 109.95 169.758 109.18C169.656 108.405 170.2 107.696 170.972 107.597Z" fill="#371A45"/>
<path d="M238.828 82.2496C239.992 86.8913 237.426 92.7112 242.277 95.6401C242.784 95.9356 242.387 96.7319 241.845 96.5018C235.971 94.1063 237.243 88.0576 235.514 83.3531C234.56 80.9773 238.158 79.7691 238.828 82.2496Z" fill="#371A45"/>
<path d="M216.168 133.082C215.809 133.082 215.451 132.945 215.178 132.671C206 123.453 202.491 113.147 204.133 100.237C204.23 99.4716 204.93 98.9329 205.695 99.027C206.46 99.1238 207.003 99.8233 206.905 100.59C205.38 112.576 208.639 122.144 217.159 130.702C217.703 131.249 217.702 132.133 217.154 132.678C216.881 132.946 216.524 133.082 216.168 133.082Z" fill="#371A45"/>
<g opacity="0.25">
<path d="M185.476 139.371L181.745 131.466C183.38 130.368 185.287 129.678 187.159 129.022C190.854 127.715 194.55 126.409 198.245 125.096C200.424 124.328 202.611 123.554 204.833 122.925C207.572 122.143 210.374 121.57 213.077 120.661C216.864 119.39 220.406 117.491 224.017 115.766C230.576 112.637 237.52 110.032 243.13 105.409C248.041 101.352 251.82 95.2401 251.638 89.0044C257.479 108.866 238.08 130.809 185.476 139.371Z" fill="#371A45"/>
</g>
<path d="M97.3493 72.9326C99.888 82.0579 104.75 90.5988 111.788 97.632C113.224 99.0651 114.744 100.435 116.354 101.733C117.136 102.367 117.945 102.983 118.773 103.588C121.278 105.399 123.88 106.98 126.558 108.333C128.864 109.506 131.23 110.507 133.629 111.346C136.525 112.36 139.478 113.129 142.455 113.665C143.542 113.857 144.63 114.021 145.72 114.154C165.675 116.57 186.319 108.588 199.046 91.4905C217.798 66.3086 212.256 30.8951 186.679 12.3908C181.751 8.83032 176.437 6.14593 170.934 4.33368C170.293 4.11532 169.643 3.91527 168.99 3.7296C167.247 3.21835 165.489 2.79209 163.721 2.45213C159.631 1.66499 155.487 1.32633 151.371 1.42309C147.256 1.51462 143.159 2.04287 139.164 2.99476C137.894 3.2968 136.635 3.63938 135.384 4.02772C133.511 4.61088 131.666 5.28426 129.852 6.06094C120.809 9.90381 112.652 16.0963 106.407 24.4868C95.6189 38.9731 92.8735 56.842 97.3493 72.9326Z" fill="white"/>
<path d="M152.734 114.72C150.399 114.72 148.053 114.58 145.702 114.295C144.609 114.16 143.508 113.995 142.43 113.804C139.414 113.26 136.437 112.478 133.582 111.478C131.142 110.626 128.758 109.61 126.494 108.458C123.792 107.091 121.165 105.491 118.691 103.701C117.784 103.038 116.991 102.43 116.265 101.84C114.685 100.567 113.144 99.1847 111.687 97.7294C104.814 90.8609 99.8081 82.2978 97.2131 72.9685C92.5307 56.1391 95.8411 38.4363 106.294 24.4011C112.337 16.2826 120.464 9.89526 129.797 5.92948C131.566 5.17242 133.431 4.48596 135.344 3.89103C136.57 3.50922 137.844 3.16142 139.133 2.85545C143.136 1.90225 147.252 1.37139 151.368 1.27986C155.528 1.1818 159.688 1.5296 163.748 2.31151C165.513 2.65278 167.29 3.08296 169.031 3.59291C169.732 3.79296 170.369 3.99171 170.981 4.19961C176.593 6.04847 181.904 8.76554 186.764 12.2763C199.216 21.284 207.343 34.5294 209.653 49.5739C211.943 64.4982 208.217 79.4147 199.162 91.5761C188.263 106.217 170.931 114.72 152.734 114.72ZM97.4852 72.894C100.067 82.1775 105.048 90.6961 111.887 97.5307C113.336 98.9781 114.869 100.355 116.442 101.622C117.164 102.208 117.954 102.813 118.857 103.473C121.318 105.254 123.932 106.847 126.622 108.207C128.876 109.352 131.248 110.364 133.676 111.213C136.517 112.208 139.479 112.987 142.48 113.527C143.552 113.717 144.648 113.881 145.736 114.015C166.313 116.504 186.696 107.845 198.93 91.4074C207.941 79.3074 211.648 64.4668 209.369 49.6184C207.072 34.6497 198.984 21.4709 186.595 12.5077C181.76 9.01528 176.474 6.30998 170.89 4.47027C170.281 4.26368 169.647 4.06624 168.951 3.86749C167.218 3.36016 165.45 2.93129 163.693 2.59264C159.653 1.81465 155.512 1.47207 151.374 1.56622C147.279 1.65774 143.182 2.18468 139.197 3.13396C137.915 3.43862 136.646 3.78512 135.426 4.1643C133.523 4.75662 131.667 5.43916 129.906 6.19361C120.62 10.1398 112.533 16.4944 106.52 24.5737C96.1197 38.5357 92.8276 56.1496 97.4852 72.894Z" fill="#371A45"/>
<g opacity="0.25">
<path d="M199.046 91.4904C186.321 108.59 165.673 116.573 145.718 114.154C144.627 114.021 143.54 113.858 142.456 113.665C139.478 113.13 136.526 112.359 133.63 111.347C131.231 110.506 128.865 109.506 126.561 108.334C123.879 106.98 121.279 105.4 118.773 103.589C117.948 102.981 117.137 102.368 116.354 101.735C114.743 100.435 113.226 99.0636 111.789 97.6306C104.751 90.5973 99.8865 82.0591 97.3491 72.9311C95.9536 67.9193 95.2591 62.7297 95.2918 57.5256C97.9155 66.1803 102.65 74.2583 109.365 80.9699C110.799 82.4069 112.32 83.7746 113.93 85.0743C114.711 85.7071 115.52 86.3217 116.35 86.9283C118.856 88.7406 121.457 90.3201 124.134 91.6747C126.443 92.8463 128.806 93.8466 131.204 94.6873C134.1 95.6993 137.056 96.4695 140.03 97.0056C141.118 97.1978 142.206 97.3599 143.296 97.4933C163.25 99.9136 183.894 91.931 196.623 74.8297C204.051 64.8557 207.664 53.2774 207.733 41.7828C212.719 58.1977 210.115 76.6275 199.046 91.4904Z" fill="#371A45"/>
</g>
<path d="M152.734 115.669C150.362 115.669 147.978 115.526 145.589 115.237C144.476 115.1 143.359 114.933 142.264 114.739C139.196 114.186 136.17 113.391 133.268 112.374C130.789 111.507 128.366 110.474 126.064 109.304C123.317 107.915 120.649 106.288 118.134 104.47C117.21 103.794 116.405 103.177 115.666 102.578C114.062 101.286 112.497 99.8802 111.015 98.4014C104.025 91.4165 98.9372 82.7109 96.2977 73.2233C91.5368 56.1089 94.9022 38.108 105.532 23.8362C111.675 15.583 119.937 9.08839 129.424 5.05724C131.221 4.2884 133.118 3.59148 135.06 2.98609C136.308 2.59906 137.603 2.24471 138.912 1.93352C142.981 0.964631 147.165 0.425924 151.346 0.333088C155.571 0.23633 159.801 0.586751 163.927 1.38174C165.722 1.72824 167.528 2.16626 169.297 2.68405C170.005 2.88672 170.659 3.09069 171.286 3.30252C176.982 5.17884 182.38 7.94037 187.319 11.5073C199.978 20.6654 208.242 34.1331 210.59 49.43C212.919 64.6066 209.13 79.7754 199.922 92.1422C188.844 107.023 171.227 115.669 152.734 115.669ZM98.3996 72.6389C100.938 81.7642 105.834 90.1403 112.558 96.8585C113.984 98.2811 115.492 99.6357 117.039 100.882C117.751 101.46 118.529 102.056 119.418 102.706C121.837 104.454 124.405 106.02 127.051 107.358C129.268 108.486 131.602 109.48 133.99 110.314C136.784 111.294 139.698 112.059 142.65 112.591C143.703 112.778 144.782 112.939 145.854 113.071C166.092 115.524 186.14 107.004 198.172 90.8386C207.029 78.9438 210.675 64.3556 208.434 49.7595C206.175 35.0444 198.223 22.0867 186.041 13.2738C181.284 9.83761 176.087 7.17807 170.594 5.36974C169.992 5.16576 169.372 4.97225 168.691 4.77742C166.98 4.27664 165.241 3.8543 163.514 3.52088C159.541 2.75596 155.461 2.41862 151.396 2.51145C147.366 2.60167 143.337 3.11946 139.417 4.05305C138.154 4.35247 136.907 4.69374 135.707 5.06639C133.837 5.64956 132.01 6.32032 130.279 7.06039C121.146 10.9412 113.194 17.1912 107.281 25.1346C97.0576 38.8664 93.8205 56.1795 98.3996 72.6389Z" fill="#371A45"/>
<path d="M152.734 115.984C150.349 115.984 147.952 115.842 145.551 115.55C144.432 115.413 143.31 115.244 142.21 115.049C139.125 114.494 136.082 113.694 133.164 112.672C130.673 111.802 128.235 110.763 125.921 109.585C123.161 108.19 120.477 106.554 117.949 104.725C117.019 104.045 116.21 103.424 115.468 102.823C113.857 101.524 112.282 100.111 110.793 98.6255C103.765 91.6026 98.6478 82.8473 95.994 73.3075C91.2057 56.0989 94.5906 37.9973 105.279 23.647C111.455 15.3481 119.762 8.81952 129.301 4.76613C131.106 3.99338 133.013 3.29253 134.967 2.68453C136.22 2.29488 137.524 1.93792 138.84 1.62542C142.93 0.651298 147.136 0.109975 151.34 0.0158324C155.583 -0.0822333 159.839 0.272111 163.987 1.06971C165.791 1.41752 167.608 1.85816 169.385 2.37856C170.098 2.58254 170.755 2.78651 171.386 3.00095C177.111 4.88643 182.538 7.66234 187.503 11.2489C200.232 20.4566 208.54 33.9989 210.901 49.3795C213.243 64.6411 209.433 79.8936 200.173 92.3283C189.037 107.294 171.328 115.984 152.734 115.984ZM98.7041 72.5557C101.228 81.6287 106.097 89.9564 112.781 96.6367C114.199 98.0527 115.698 99.3982 117.236 100.638C117.945 101.213 118.718 101.805 119.605 102.453C122.008 104.19 124.563 105.749 127.194 107.079C129.399 108.201 131.719 109.189 134.093 110.019C136.872 110.992 139.768 111.754 142.705 112.283C143.751 112.468 144.825 112.629 145.892 112.76C166.013 115.197 185.952 106.727 197.917 90.6534C206.723 78.8279 210.346 64.3221 208.12 49.811C205.876 35.1796 197.968 22.2964 185.855 13.5332C181.125 10.1166 175.956 7.47275 170.494 5.67226C169.894 5.46828 169.281 5.27738 168.603 5.08387C166.9 4.58569 165.171 4.16597 163.454 3.83386C159.502 3.07287 155.443 2.73552 151.404 2.82966C147.396 2.91858 143.389 3.43506 139.49 4.36341C138.235 4.66153 136.994 5.00018 135.801 5.37153C133.941 5.95077 132.125 6.61892 130.405 7.35507C121.321 11.2149 113.415 17.4284 107.535 25.3272C97.37 38.9767 94.1511 56.1905 98.7041 72.5557Z" fill="#371A45"/>
<path d="M103.027 86.3148C130.464 116.425 178.841 110.625 190.398 72.2378C198.26 46.1209 178.367 18.3435 152.415 12.4791C133.528 8.21133 113.203 12.1836 98.5016 39.2472C98.5016 39.2472 93.8728 52.2206 95.441 61.9291C97.0092 71.6389 100.197 80.8231 100.197 80.8231L103.027 86.3148Z" fill="#371A45"/>
<path d="M190.397 72.2382C178.842 110.625 130.462 116.424 103.027 86.3165L102.454 85.2024C137.011 99.8561 177.968 86.8787 190.386 48.2814C192.608 55.9606 192.822 64.1785 190.397 72.2382Z" fill="#220F2D"/>
<path d="M145.361 112.721C138.959 112.721 132.45 111.712 126.126 109.672C126.056 109.65 125.989 109.621 125.924 109.588C123.161 108.192 120.477 106.556 117.949 104.727C117.019 104.047 116.21 103.426 115.468 102.824C113.857 101.526 112.282 100.112 110.793 98.6271C103.765 91.6043 98.6478 82.849 95.994 73.3104C91.2057 56.1019 94.5906 38.0003 105.279 23.65C111.455 15.351 119.762 8.82245 129.301 4.76907C129.39 4.73115 129.481 4.70369 129.575 4.68408C136.998 3.20002 145.152 3.44191 153.812 5.39931C169.396 8.92052 183.686 19.5691 192.04 33.8854C199.561 46.7752 201.515 61.1451 197.54 74.346C193.211 88.7185 184.245 99.8169 171.611 106.444C163.668 110.607 154.625 112.721 145.361 112.721ZM127.096 107.028C141.826 111.75 157.568 110.629 170.303 103.95C182.253 97.683 190.74 87.1652 194.846 73.5327C198.593 61.0862 196.733 47.5087 189.61 35.3002C181.642 21.6455 168.028 11.4925 153.19 8.13991C144.974 6.28451 137.262 6.03869 130.267 7.41161C121.244 11.2728 113.386 17.4653 107.535 25.3262C97.3713 38.9744 94.1538 56.1895 98.7041 72.5547C101.228 81.6277 106.097 89.9554 112.781 96.6357C114.199 98.0518 115.698 99.3972 117.236 100.637C117.945 101.212 118.718 101.804 119.605 102.452C121.976 104.168 124.499 105.709 127.096 107.028Z" fill="#371A45"/>
<path d="M145.141 106.498C129.415 106.498 113.734 99.5212 102.302 86.9766C102.245 86.9126 102.195 86.842 102.156 86.7661L99.3243 81.2744C99.3021 81.2326 99.285 81.1908 99.2694 81.1463C99.238 81.0535 96.0348 71.7699 94.4718 62.0876C92.8814 52.2418 97.3846 39.4579 97.5769 38.9192C97.5939 38.8708 97.6148 38.8251 97.6384 38.7806C110.379 15.3285 128.88 6.15745 152.632 11.5236C166.424 14.6395 179.073 24.0655 186.469 36.7382C193.122 48.14 194.851 60.848 191.337 72.5204C186.238 89.4557 173.609 101.371 156.685 105.212C152.878 106.076 149.006 106.498 145.141 106.498ZM103.841 85.7502C117.604 100.79 137.674 107.514 156.254 103.299C172.467 99.6193 184.571 88.194 189.46 71.9556C192.815 60.8088 191.152 48.6526 184.776 37.7267C177.65 25.5156 165.472 16.436 152.2 13.4365C129.432 8.29136 111.669 17.1107 99.4015 39.6462C99.0457 40.674 94.9584 52.7883 96.4089 61.7738C97.8777 70.869 100.817 79.6047 101.102 80.4376L103.841 85.7502Z" fill="#371A45"/>
<path d="M215.776 75.5333C213.886 86.5363 205.707 94.6535 197.506 93.6611C189.305 92.6687 184.19 82.9445 186.08 71.9428C186.09 71.8735 186.105 71.8003 186.119 71.7323C188.075 60.8366 196.206 52.8305 204.349 53.8151C210.685 54.5813 215.178 60.5594 216.025 68.3105C216.273 70.5921 216.205 73.032 215.776 75.5333Z" fill="white"/>
<g opacity="0.25">
<path d="M215.776 75.5331C213.886 86.536 205.707 94.6532 197.506 93.6608C189.305 92.6684 184.19 82.9442 186.08 71.9425C186.09 71.8732 186.105 71.8 186.119 71.732C186.827 72.9703 188.039 74.2517 190.005 74.1065C193.448 73.8516 200.639 67.4995 200.639 67.4995C200.639 67.4995 207.313 67.8081 216.025 68.3102C216.273 70.5919 216.205 73.0317 215.776 75.5331Z" fill="#371A45"/>
</g>
<path d="M198.848 95.1475C198.344 95.1475 197.841 95.1174 197.336 95.056C193.741 94.6206 190.59 92.7129 188.225 89.5369C184.819 84.9644 183.532 78.4646 184.693 71.702C186.705 59.989 195.594 51.3383 204.521 52.417C208.116 52.8525 211.267 54.7602 213.632 57.9362C217.038 62.5087 218.325 69.0098 217.163 75.771C215.265 86.8211 207.24 95.1475 198.848 95.1475ZM202.976 55.138C195.934 55.138 189.134 62.4733 187.466 72.1792C186.45 78.0972 187.576 83.9576 190.482 87.8567C192.376 90.3985 194.864 91.9231 197.676 92.2631C205.127 93.1679 212.63 85.5515 214.392 75.2951C215.408 69.3772 214.282 63.5168 211.375 59.6177C209.482 57.0758 206.994 55.5512 204.182 55.2113C203.779 55.1629 203.376 55.138 202.976 55.138Z" fill="#371A45"/>
<path d="M217.101 79.3896C219.435 70.8269 216.077 62.4556 209.602 60.6917C203.127 58.9278 195.986 64.4393 193.652 73.0019C191.318 81.5646 194.675 89.9359 201.15 91.6998C207.625 93.4637 214.767 87.9522 217.101 79.3896Z" fill="white"/>
<path d="M203.578 92.1803C201.523 92.1803 199.581 91.5252 197.872 90.2412C192.297 86.0505 191.119 76.3433 195.246 68.6027C197.547 64.2878 201.086 61.321 204.957 60.4632C207.836 59.8251 210.582 60.4096 212.898 62.1525C218.474 66.3432 219.651 76.0504 215.524 83.7911C213.224 88.106 209.684 91.0728 205.813 91.9305C205.057 92.0979 204.31 92.1803 203.578 92.1803ZM207.19 60.5064C206.48 60.5064 205.754 60.5874 205.022 60.7496C201.234 61.589 197.766 64.5009 195.506 68.7399C191.445 76.3577 192.586 85.8975 198.049 90.0058C200.296 91.6952 202.962 92.2613 205.75 91.6429C209.538 90.8034 213.005 87.8915 215.265 83.6525C219.327 76.0347 218.186 66.4949 212.723 62.3866C211.066 61.1418 209.183 60.5064 207.19 60.5064Z" fill="#371A45"/>
<g opacity="0.25">
<path d="M192.907 81.0013C192.664 77.9678 193.266 74.8584 194.483 72.0498C195.628 78.921 201.167 82.5769 207.371 80.2887C211.379 78.8125 214.742 75.1906 216.626 70.8417C216.7 71.2745 216.752 71.7256 216.79 72.1858C217.405 79.9108 212.557 88.147 205.959 90.5803C199.365 93.0137 193.522 88.7223 192.907 81.0013Z" fill="#371A45"/>
</g>
<path d="M203.536 93.4816C203.193 93.4816 202.849 93.4633 202.505 93.4241C199.834 93.122 197.48 91.7033 195.697 89.3197C192.943 85.6364 191.899 80.0139 192.907 74.2817C194.608 64.6124 201.638 57.3817 208.531 58.1649C211.202 58.4669 213.556 59.8856 215.339 62.2693C218.094 65.9526 219.137 71.5737 218.13 77.3073C216.513 86.4954 210.103 93.4816 203.536 93.4816ZM207.46 60.9173C202.241 60.9173 197.06 66.915 195.68 74.7694C194.804 79.7524 195.653 84.5616 197.952 87.6356C199.259 89.3812 200.942 90.4167 202.823 90.6285C208.294 91.2483 213.912 85.0519 215.358 76.8196C216.235 71.8366 215.386 67.0261 213.086 63.9534C211.78 62.2078 210.096 61.1722 208.216 60.9604C207.964 60.9316 207.711 60.9173 207.46 60.9173Z" fill="#371A45"/>
<g opacity="0.5">
<path d="M163.646 26.1208C163.646 26.1208 138.569 22.0897 121.727 33.0338C121.708 33.0456 121.691 33.0574 121.673 33.0678C118.13 35.3743 115.286 38.5856 113.415 42.3409C110.94 47.3083 109.973 51.0884 109.253 54.4501C107.066 64.6724 107.983 69.8673 107.983 69.8673C103.235 63.2341 101.221 56.4075 102.956 47.8757C103.13 47.035 103.34 46.1746 103.584 45.2986C103.639 45.0959 103.699 44.8972 103.762 44.6971C103.758 44.6945 103.761 44.6906 103.767 44.6853C104.389 42.945 105.292 40.6869 106.528 38.2248C110.252 30.7966 116.97 21.4961 127.989 18.83C148.592 13.8443 164.729 25.2317 163.646 26.1208Z" fill="white"/>
</g>
<g opacity="0.5">
<path d="M177.483 63.7994C181.714 63.5324 184.896 59.3776 184.589 54.5194C184.282 49.6612 180.603 45.9394 176.372 46.2064C172.141 46.4734 168.96 50.6282 169.267 55.4863C169.574 60.3445 173.252 64.0664 177.483 63.7994Z" fill="white"/>
</g>
<g opacity="0.5">
<path d="M178.366 74.5793C180.094 74.3073 181.242 72.4764 180.929 70.4897C180.616 68.5031 178.961 67.1131 177.233 67.3851C175.505 67.6571 174.357 69.488 174.67 71.4746C174.983 73.4613 176.638 74.8512 178.366 74.5793Z" fill="white"/>
</g>
</svg>
